<svg height="512" viewBox="0 0 512 512" width="512" xmlns="http://www.w3.org/2000/svg"><g id="filled_outline" data-name="filled outline"><path d="m344 488h-176l-16-32a111.579 111.579 0 0 1 16.96-59.136l23.04-36.864h128l23.04 36.864a111.579 111.579 0 0 1 16.96 59.136z" fill="#eaeae8"/><path d="m360 456h-208l16 32h176z" fill="#cbcbcb"/><g fill="#2ad3b3"><path d="m290.968 90.241a7.979 7.979 0 0 1 -5.968-2.665 39.993 39.993 0 0 0 -59.408-.241 8 8 0 1 1 -11.832-10.765 55.992 55.992 0 0 1 83.166.335 8 8 0 0 1 -5.958 13.336z"/><path d="m316.652 71.03a7.984 7.984 0 0 1 -6.148-2.875 71.99 71.99 0 0 0 -108.586-2.345 8 8 0 1 1 -11.836-10.767 87.992 87.992 0 0 1 132.709 2.862 8 8 0 0 1 -6.139 13.125z"/><path d="m267.488 112a7.984 7.984 0 0 1 -6.147-2.875 7.986 7.986 0 0 0 -6.146-2.884 7.9 7.9 0 0 0 -5.907 2.633 8 8 0 0 1 -11.836-10.767 23.968 23.968 0 0 1 36.175.768 8 8 0 0 1 -6.139 13.125z"/></g><path d="m280 432h-16a8 8 0 0 1 0-16h16a8 8 0 0 1 0 16z" fill="#eaeae8"/><path d="m320 432h-8a8 8 0 0 1 0-16h8a8 8 0 0 1 0 16z" fill="#eaeae8"/><path d="m333.62 381.79a128.039 128.039 0 0 1 -155.24 0l13.62-21.79h128z" fill="#cbcbcb"/><circle cx="256" cy="264" fill="#eaeae8" r="128"/><rect fill="#a8a8a8" height="176" rx="56" width="112" x="200" y="176"/><circle cx="256" cy="264" fill="#cbcbcb" r="56"/><circle cx="256" cy="264" fill="#2ad3b3" r="16"/><path d="m256 288a24 24 0 1 0 -24-24 24.027 24.027 0 0 0 24 24zm0-32a8 8 0 1 1 -8 8 8.009 8.009 0 0 1 8-8z"/><path d="m320 296v-64a64 64 0 0 0 -128 0v64a64 64 0 0 0 128 0zm-64-80a48 48 0 1 1 -48 48 48.055 48.055 0 0 1 48-48zm0-32a48.084 48.084 0 0 1 46.505 36.1 63.849 63.849 0 0 0 -93.01 0 48.084 48.084 0 0 1 46.505-36.1zm-46.5 123.9a63.849 63.849 0 0 0 93.01 0 48 48 0 0 1 -93.01 0z"/><path d="m337.459 372.839a135.879 135.879 0 0 0 54.541-108.839c0-74.991-61.009-136-136-136s-136 61.009-136 136a135.879 135.879 0 0 0 54.541 108.839l-12.365 19.785a119.452 119.452 0 0 0 -18.176 63.376 7.994 7.994 0 0 0 .845 3.578l16 32a8 8 0 0 0 7.155 4.422h176a8 8 0 0 0 7.155-4.422l16-32a7.994 7.994 0 0 0 .845-3.578 119.446 119.446 0 0 0 -18.176-63.375zm-201.459-108.839a120 120 0 1 1 120 120 120.136 120.136 0 0 1 -120-120zm39.744 137.1 12.142-19.428a135.759 135.759 0 0 0 136.228 0l12.142 19.428a103.456 103.456 0 0 1 15.424 46.9h-191.36a103.456 103.456 0 0 1 15.424-46.9zm163.312 78.9h-166.112l-8-16h182.112z"/><path d="m285 87.576a8 8 0 1 0 11.922-10.671 55.992 55.992 0 0 0 -83.166-.335 8 8 0 1 0 11.844 10.765 39.993 39.993 0 0 1 59.4.241z"/><path d="m201.918 65.81a71.99 71.99 0 0 1 108.582 2.345 8 8 0 0 0 12.287-10.25 87.992 87.992 0 0 0 -132.709-2.862 8 8 0 1 0 11.84 10.767z"/><path d="m255.2 90.241a24.046 24.046 0 0 0 -17.743 7.866 8 8 0 0 0 11.836 10.767 7.9 7.9 0 0 1 5.907-2.633 7.986 7.986 0 0 1 6.146 2.884 8 8 0 1 0 12.286-10.25 23.946 23.946 0 0 0 -18.432-8.634z"/><path d="m264 432h16a8 8 0 0 0 0-16h-16a8 8 0 0 0 0 16z"/><path d="m312 432h8a8 8 0 0 0 0-16h-8a8 8 0 0 0 0 16z"/></g></svg>